<svg width="180" height="180" viewBox="0 0 180 180" xmlns="http://www.w3.org/2000/svg">
  <defs>
    <linearGradient id="g" x1="0" y1="0" x2="1" y2="1">
      <stop offset="0%" stop-color="#C9A84C"/>
      <stop offset="100%" stop-color="#A88832"/>
    </linearGradient>
  </defs>
  <rect width="180" height="180" rx="36" fill="url(#g)"/>
  <path fill="#FFFFFF" d="M90 32c-21 0-35 12-35 29 0 16 11 24 32 29l9 2c14 3 20 7 20 15 0 9-9 15-23 15-15 0-25-6-27-17H51c2 22 19 35 42 35 24 0 41-13 41-32 0-16-11-25-33-30l-10-2c-13-3-19-7-19-14 0-8 8-13 21-13 13 0 22 6 24 16h15c-2-20-18-33-42-33z"/>
</svg>
